<svg width="42" height="42" viewBox="0 0 42 42" fill="none" xmlns="http://www.w3.org/2000/svg">
<path d="M42 21C42 32.598 32.598 42 21 42C9.40202 42 0 32.598 0 21C0 9.40202 9.40202 0 21 0C32.598 0 42 9.40202 42 21Z" fill="#E17200"/>
<path d="M13.57 21.1522C12.8261 21.1522 12.1795 21.0296 11.63 20.7845C11.0806 20.5393 10.6368 20.2054 10.2987 19.7828L11.4018 18.5656C11.723 18.9206 12.0738 19.1826 12.4542 19.3517C12.843 19.5208 13.2361 19.6053 13.6334 19.6053C14.0898 19.6053 14.4364 19.5038 14.6731 19.301C14.9097 19.0981 15.0281 18.8065 15.0281 18.4261C15.0281 18.1134 14.9351 17.8767 14.7491 17.7161C14.5716 17.5555 14.2673 17.4414 13.8362 17.3737L12.9106 17.2216C12.1161 17.0863 11.5413 16.7947 11.1863 16.3467C10.8312 15.8903 10.6537 15.3366 10.6537 14.6857C10.6537 13.832 10.9327 13.1727 11.4906 12.7078C12.0485 12.2344 12.8303 11.9977 13.8362 11.9977C14.5209 11.9977 15.1168 12.1034 15.624 12.3147C16.1312 12.526 16.5411 12.8134 16.8539 13.1769L15.7762 14.3814C15.5395 14.1194 15.2605 13.9165 14.9393 13.7728C14.6181 13.6207 14.2546 13.5446 13.8489 13.5446C12.9952 13.5446 12.5683 13.8954 12.5683 14.597C12.5683 14.9013 12.6613 15.1295 12.8472 15.2817C13.0417 15.4338 13.3544 15.5479 13.7855 15.624L14.7111 15.7888C15.4296 15.9156 15.9832 16.1861 16.3721 16.6003C16.7609 17.0145 16.9553 17.5724 16.9553 18.274C16.9553 18.6882 16.8835 19.0728 16.7398 19.4278C16.5961 19.7743 16.3805 20.0786 16.0931 20.3407C15.8057 20.5943 15.4507 20.7929 15.0281 20.9366C14.6139 21.0803 14.1278 21.1522 13.57 21.1522Z" fill="#0A1122"/>
<path d="M22.4278 17.2977H20.1963V21H18.2817V12.1499H20.1963V15.7381H22.4278V12.1499H24.3424V21H22.4278V17.2977Z" fill="#0A1122"/>
<path d="M30.6263 21L30.0684 18.8699H27.6467L27.1015 21H25.1742L27.5706 12.1499H30.2586L32.655 21H30.6263ZM28.9146 13.9884H28.8132L27.951 17.3357H29.7768L28.9146 13.9884Z" fill="#0A1122"/>
<path d="M16.9426 30.5094H10.5777V28.7724L13.3671 26.4521C13.8489 26.0379 14.1955 25.6786 14.4068 25.3743C14.6181 25.07 14.7238 24.7488 14.7238 24.4107V24.2839C14.7238 23.912 14.6139 23.6331 14.3941 23.4471C14.1743 23.2527 13.8785 23.1555 13.5066 23.1555C13.0839 23.1555 12.7585 23.278 12.5303 23.5232C12.302 23.7683 12.1414 24.0599 12.0485 24.398L10.3875 23.7641C10.4889 23.4598 10.6284 23.1724 10.8059 22.9019C10.9834 22.6229 11.2074 22.382 11.4779 22.1792C11.7568 21.9763 12.078 21.8157 12.4415 21.6974C12.805 21.5706 13.2234 21.5072 13.6968 21.5072C14.1786 21.5072 14.6097 21.5748 14.99 21.71C15.3704 21.8453 15.6916 22.0312 15.9537 22.2679C16.2157 22.5046 16.4143 22.7878 16.5496 23.1174C16.6848 23.4386 16.7525 23.7894 16.7525 24.1698C16.7525 24.5417 16.6891 24.8841 16.5623 25.1968C16.4439 25.5011 16.2749 25.7885 16.0551 26.059C15.8438 26.3295 15.5902 26.5915 15.2943 26.8451C15.0069 27.0987 14.6984 27.3523 14.3688 27.6059L12.6824 28.9118H16.9426V30.5094Z" fill="#F3F3F3"/>
<path d="M24.1649 23.3203H20.0695L19.8666 26.1224H19.9807C20.0737 25.9195 20.1793 25.7336 20.2977 25.5645C20.416 25.387 20.5555 25.2391 20.7161 25.1208C20.8767 24.994 21.0627 24.8968 21.274 24.8291C21.4853 24.7615 21.7262 24.7277 21.9967 24.7277C22.3602 24.7277 22.7025 24.7911 23.0237 24.9179C23.3534 25.0447 23.6408 25.2306 23.8859 25.4758C24.1395 25.7125 24.3381 26.0083 24.4818 26.3633C24.6255 26.7099 24.6974 27.1029 24.6974 27.5425C24.6974 27.9905 24.6213 28.4047 24.4692 28.7851C24.317 29.1654 24.093 29.4951 23.7972 29.774C23.5098 30.053 23.1505 30.2728 22.7194 30.4334C22.2883 30.5855 21.7981 30.6616 21.2486 30.6616C20.8175 30.6616 20.4329 30.6151 20.0948 30.5221C19.7567 30.4291 19.4566 30.3066 19.1946 30.1544C18.941 29.9938 18.717 29.8121 18.5226 29.6092C18.3366 29.3979 18.176 29.1823 18.0408 28.9626L19.4228 27.8722C19.5243 28.0412 19.6299 28.2018 19.7398 28.354C19.8581 28.5061 19.9892 28.6414 20.1329 28.7597C20.285 28.8696 20.4498 28.9583 20.6273 29.026C20.8133 29.0851 21.0246 29.1147 21.2613 29.1147C21.7347 29.1147 22.0897 28.9879 22.3264 28.7343C22.5715 28.4723 22.6941 28.1257 22.6941 27.6946V27.5932C22.6941 27.179 22.5715 26.8536 22.3264 26.6169C22.0812 26.3802 21.7431 26.2619 21.312 26.2619C20.957 26.2619 20.6612 26.3337 20.4245 26.4774C20.1963 26.6127 20.023 26.7479 19.9046 26.8832L18.3451 26.6676L18.6747 21.6593H24.1649V23.3203Z" fill="#F3F3F3"/>
<path d="M28.9653 30.6616C28.4328 30.6616 27.9552 30.5813 27.5326 30.4207C27.1184 30.2516 26.7676 30.0149 26.4802 29.7106C26.1928 29.3979 25.973 29.026 25.8209 28.5949C25.6687 28.1638 25.5927 27.682 25.5927 27.1494C25.5927 26.5324 25.6899 25.9491 25.8843 25.3997C26.0787 24.8418 26.3281 24.3304 26.6324 23.8655C26.9451 23.3921 27.2917 22.9695 27.6721 22.5976C28.0609 22.2257 28.4455 21.9129 28.8259 21.6593H31.4505C30.901 22.0397 30.4065 22.4074 29.967 22.7624C29.5359 23.109 29.1555 23.4598 28.8259 23.8148C28.5047 24.1614 28.2384 24.5206 28.0271 24.8925C27.8242 25.2645 27.6763 25.666 27.5833 26.0971L27.6974 26.1351C27.7735 25.966 27.8665 25.8012 27.9764 25.6406C28.0862 25.48 28.2215 25.3405 28.3821 25.2222C28.5427 25.0954 28.7287 24.994 28.94 24.9179C29.1598 24.8418 29.4133 24.8038 29.7007 24.8038C30.0727 24.8038 30.4192 24.8714 30.7404 25.0066C31.0616 25.1334 31.3364 25.3194 31.5646 25.5645C31.8013 25.8012 31.9872 26.0886 32.1225 26.4267C32.2577 26.7648 32.3253 27.1452 32.3253 27.5678C32.3253 28.0158 32.245 28.43 32.0844 28.8104C31.9238 29.1908 31.6956 29.5205 31.3998 29.7994C31.1124 30.0699 30.7616 30.2812 30.3474 30.4334C29.9332 30.5855 29.4725 30.6616 28.9653 30.6616ZM28.9527 29.1781C29.4091 29.1781 29.7557 29.0598 29.9924 28.8231C30.229 28.578 30.3474 28.2356 30.3474 27.7961V27.6186C30.3474 27.179 30.2248 26.8451 29.9797 26.6169C29.743 26.3802 29.4007 26.2619 28.9527 26.2619C28.5216 26.2619 28.1835 26.3802 27.9383 26.6169C27.6932 26.8451 27.5706 27.179 27.5706 27.6186V27.7961C27.5706 28.2356 27.6847 28.578 27.913 28.8231C28.1496 29.0598 28.4962 29.1781 28.9527 29.1781Z" fill="#F3F3F3"/>
</svg>
