<svg width="578" height="152" viewBox="0 0 578 152" fill="none" xmlns="http://www.w3.org/2000/svg">
<g clip-path="url(#clip0_473_2)">
<path d="M14.8531 90.7981C23.039 90.7981 29.6749 84.1778 29.6749 76.0114C29.6749 67.8449 23.039 61.2246 14.8531 61.2246C6.66722 61.2246 0.03125 67.8449 0.03125 76.0114C0.03125 84.1778 6.66722 90.7981 14.8531 90.7981Z" fill="#FF6309"/>
<path d="M121.135 152C129.322 152 135.958 145.379 135.958 137.212C135.958 129.045 129.322 122.424 121.135 122.424C112.949 122.424 106.312 129.045 106.312 137.212C106.312 145.379 112.949 152 121.135 152Z" fill="#FFB515"/>
<path d="M121.127 29.5735C129.312 29.5735 135.948 22.9532 135.948 14.7867C135.948 6.62025 129.312 0 121.127 0C112.941 0 106.305 6.62025 106.305 14.7867C106.305 22.9532 112.941 29.5735 121.127 29.5735Z" fill="#C90016"/>
<path d="M85.7093 39.4218C104.166 39.4218 119.478 53.0936 122.014 70.8183H147.408C146.253 56.8907 140.467 43.9089 130.789 33.6717C124.591 36.8202 116.969 36.8806 110.496 33.1529C104.017 29.4203 100.259 22.8019 99.8981 15.8653C95.2456 14.7844 90.4842 14.2397 85.7073 14.2417C76.4412 14.2417 67.4871 16.2591 59.3438 20.0855L72.0596 42.0536C76.3983 40.3115 81.0323 39.418 85.7093 39.4218Z" fill="#FF6309"/>
<path d="M49.0348 76.0114C49.0348 64.3541 54.527 53.9547 63.0641 47.2497L50.3533 25.2847C47.3424 27.3836 44.5219 29.7422 41.9242 32.3331C34.5683 39.6716 29.2932 48.5319 26.3906 58.2021C32.2392 61.9811 36.112 68.542 36.112 76.0114C36.112 83.4788 32.2392 90.0408 26.3906 93.8188C29.2932 103.489 34.5683 112.348 41.9242 119.689C44.5199 122.278 47.338 124.636 50.3463 126.735L63.0591 104.767C54.524 98.0631 49.0348 87.6648 49.0348 76.0114Z" fill="#FFB515"/>
<path d="M122.012 81.1875C119.482 98.9183 104.167 112.599 85.7055 112.599C80.8817 112.599 76.2719 111.662 72.0508 109.965L59.3359 131.934C67.4773 135.763 76.4364 137.781 85.7045 137.781C90.5465 137.781 95.3047 137.224 99.9055 136.156C100.26 129.21 104.019 122.58 110.502 118.845C116.978 115.115 124.602 115.174 130.8 118.329C140.469 108.09 146.251 95.1101 147.401 81.1875H122.012Z" fill="#C90016"/>
<path d="M239.803 75.7699V47.3094C239.803 42.9975 236.344 39.5469 232.022 39.5469C227.7 39.5469 224.242 42.9965 224.242 47.3094V75.7699C224.242 86.1179 219.919 89.5696 212.139 89.5696C204.361 89.5696 200.037 86.1179 200.037 75.7699V47.3094C200.037 42.9975 196.58 39.5469 192.258 39.5469C187.935 39.5469 184.477 42.9965 184.477 47.3094V75.7699C184.477 96.4679 196.58 105.093 212.139 105.093C227.7 105.093 239.803 96.4679 239.803 75.7699ZM312.42 75.7699C312.42 46.4472 300.319 39.5469 284.758 39.5469C276.978 39.5469 272.655 42.9965 272.655 42.9965V23.1607C272.655 12.8117 257.095 12.8117 257.095 23.1607V75.7699C257.095 96.4679 269.198 105.093 284.758 105.093C300.319 105.093 312.42 96.4679 312.42 75.7699ZM272.653 74.0446C272.653 55.9341 281.298 54.2087 284.756 54.2087C289.944 54.2087 296.857 58.5216 296.857 74.0446C296.857 84.3926 292.536 91.2939 284.756 91.2939C276.976 91.2949 272.653 84.3926 272.653 74.0446ZM577.969 75.7699V47.3094C577.969 42.9975 574.51 39.5469 570.188 39.5469C565.866 39.5469 562.408 42.9965 562.408 47.3094V75.7699C562.408 86.1179 558.086 89.5696 550.306 89.5696C542.525 89.5696 538.204 86.1179 538.204 75.7699V47.3094C538.208 46.2888 538.01 45.2776 537.62 44.3339C537.23 43.3903 536.657 42.5329 535.934 41.8112C535.211 41.0896 534.351 40.518 533.405 40.1293C532.46 39.7407 531.446 39.5427 530.423 39.5469C529.4 39.5426 528.386 39.7405 527.44 40.1291C526.494 40.5177 525.635 41.0893 524.912 41.811C524.188 42.5327 523.616 43.3901 523.226 44.3338C522.837 45.2775 522.639 46.2888 522.643 47.3094V75.7699C522.643 96.4679 534.744 105.093 550.306 105.093C565.866 105.093 577.969 96.4679 577.969 75.7699ZM381.484 75.7709V47.3104C381.484 42.9985 378.025 39.5489 373.703 39.5489C369.381 39.5489 365.923 42.9985 365.923 47.3104V75.7709C365.923 86.1189 361.601 89.5686 353.82 89.5686C346.041 89.5686 341.718 86.1189 341.718 75.7709V47.3104C341.718 42.9985 338.26 39.5489 333.938 39.5489C329.616 39.5489 326.158 42.9985 326.158 47.3104V75.7709C326.158 96.4689 338.26 105.093 353.82 105.093C369.381 105.093 381.484 96.4689 381.484 75.7709ZM472.796 39.5469C463.287 39.5469 463.287 53.3465 472.796 53.3465H475.39V83.3592C475.39 99.7474 479.452 105.093 493.458 105.093C500.201 105.093 510.054 103.886 510.054 96.9846C510.054 92.6738 506.079 91.5508 504.954 91.5508C502.534 91.5508 500.025 92.5852 497.26 92.5852C492.419 92.5852 490.949 90.1719 490.949 82.0649V53.3465H497.866C507.375 53.3465 507.375 39.5469 497.866 39.5469H490.949V23.1607C490.949 12.8117 475.389 12.8117 475.389 23.1607V39.5469H472.796ZM397.58 68.8696V97.3301C397.575 98.3506 397.774 99.3618 398.163 100.305C398.552 101.249 399.125 102.107 399.849 102.828C400.572 103.55 401.431 104.121 402.377 104.51C403.323 104.899 404.337 105.097 405.359 105.093C406.382 105.097 407.396 104.899 408.342 104.51C409.288 104.121 410.147 103.55 410.87 102.828C411.594 102.107 412.166 101.249 412.556 100.305C412.945 99.3618 413.144 98.3506 413.139 97.3301V68.8696C413.139 58.5216 417.461 55.0699 425.241 55.0699C433.022 55.0699 437.344 58.5216 437.344 68.8696V97.3301C437.344 101.642 440.802 105.093 445.124 105.093C449.446 105.093 452.904 101.643 452.904 97.3301V68.8696C452.904 48.1715 440.802 39.5469 425.241 39.5469C409.681 39.5469 397.58 48.1725 397.58 68.8696Z" fill="#F3F3F3"/>
</g>
<defs>
<clipPath id="clip0_473_2">
<rect width="578" height="152" fill="white"/>
</clipPath>
</defs>
</svg>
