<svg width="512" height="512" viewBox="0 0 512 512" fill="none" xmlns="http://www.w3.org/2000/svg">
<path d="M512 256C512 397.385 397.385 512 256 512C114.615 512 0 397.385 0 256C0 114.615 114.615 0 256 0C397.385 0 512 114.615 512 256Z" fill="#E17200"/>
<path d="M165.424 257.855C156.356 257.855 148.474 256.361 141.776 253.372C135.078 250.384 129.668 246.314 125.546 241.162L138.994 226.323C142.909 230.651 147.186 233.846 151.822 235.906C156.563 237.967 161.354 238.998 166.197 238.998C171.762 238.998 175.986 237.761 178.872 235.288C181.757 232.815 183.199 229.26 183.199 224.623C183.199 220.81 182.066 217.925 179.799 215.967C177.635 214.01 173.925 212.618 168.67 211.794L157.387 209.939C147.701 208.291 140.694 204.736 136.366 199.274C132.038 193.71 129.874 186.961 129.874 179.026C129.874 168.619 133.275 160.581 140.075 154.914C146.876 149.143 156.408 146.258 168.67 146.258C177.017 146.258 184.281 147.546 190.464 150.122C196.647 152.698 201.644 156.202 205.457 160.633L192.319 175.317C189.434 172.122 186.033 169.649 182.117 167.897C178.202 166.043 173.771 165.115 168.825 165.115C158.417 165.115 153.214 169.391 153.214 177.944C153.214 181.654 154.347 184.436 156.614 186.291C158.984 188.146 162.797 189.537 168.052 190.464L179.335 192.473C188.094 194.019 194.843 197.316 199.583 202.366C204.323 207.415 206.693 214.216 206.693 222.768C206.693 227.817 205.818 232.506 204.066 236.834C202.314 241.059 199.686 244.768 196.183 247.963C192.679 251.054 188.352 253.475 183.199 255.227C178.15 256.979 172.225 257.855 165.424 257.855Z" fill="#0A1122"/>
<path d="M273.406 210.867H246.202V256H222.862V148.113H246.202V191.855H273.406V148.113H296.745V256H273.406V210.867Z" fill="#0A1122"/>
<path d="M373.349 256L366.549 230.033H337.026L330.38 256H306.886L336.099 148.113H368.867L398.08 256H373.349ZM352.483 170.525H351.247L340.736 211.33H362.994L352.483 170.525Z" fill="#0A1122"/>
<path d="M206.539 371.925H128.947V350.749L162.951 322.463C168.825 317.414 173.05 313.035 175.626 309.325C178.202 305.616 179.49 301.7 179.49 297.578V296.033C179.49 291.499 178.15 288.098 175.471 285.831C172.792 283.461 169.185 282.276 164.651 282.276C159.499 282.276 155.532 283.77 152.75 286.759C149.968 289.747 148.01 293.302 146.876 297.424L126.628 289.695C127.865 285.986 129.565 282.482 131.729 279.185C133.893 275.784 136.624 272.848 139.921 270.375C143.321 267.902 147.237 265.944 151.668 264.501C156.099 262.955 161.2 262.183 166.97 262.183C172.843 262.183 178.099 263.007 182.736 264.656C187.373 266.304 191.288 268.571 194.483 271.457C197.677 274.342 200.099 277.794 201.747 281.813C203.396 285.728 204.22 290.005 204.22 294.642C204.22 299.175 203.448 303.349 201.902 307.161C200.459 310.871 198.398 314.374 195.719 317.672C193.143 320.969 190.052 324.164 186.445 327.255C182.942 330.346 179.181 333.438 175.162 336.529L154.605 352.449H206.539V371.925Z" fill="#F3F3F3"/>
<path d="M294.581 284.286H244.656L242.183 318.445H243.574C244.708 315.972 245.996 313.705 247.438 311.644C248.881 309.48 250.581 307.677 252.539 306.234C254.497 304.688 256.764 303.503 259.34 302.679C261.916 301.855 264.853 301.442 268.15 301.442C272.581 301.442 276.755 302.215 280.67 303.761C284.689 305.307 288.192 307.574 291.181 310.562C294.272 313.447 296.694 317.054 298.445 321.381C300.197 325.606 301.073 330.398 301.073 335.756C301.073 341.217 300.146 346.267 298.291 350.904C296.436 355.541 293.705 359.559 290.099 362.96C286.595 366.36 282.216 369.039 276.961 370.997C271.705 372.852 265.729 373.779 259.031 373.779C253.776 373.779 249.087 373.213 244.965 372.079C240.844 370.946 237.186 369.451 233.991 367.597C230.9 365.639 228.169 363.423 225.799 360.95C223.532 358.374 221.574 355.747 219.926 353.067L236.773 339.775C238.01 341.836 239.298 343.794 240.638 345.648C242.08 347.503 243.677 349.152 245.429 350.594C247.284 351.934 249.293 353.016 251.457 353.84C253.724 354.562 256.3 354.922 259.186 354.922C264.956 354.922 269.284 353.377 272.169 350.285C275.157 347.091 276.651 342.866 276.651 337.611V336.374C276.651 331.325 275.157 327.358 272.169 324.473C269.181 321.588 265.059 320.145 259.804 320.145C255.476 320.145 251.869 321.021 248.984 322.773C246.202 324.421 244.09 326.07 242.647 327.719L223.635 325.091L227.654 264.037H294.581V284.286Z" fill="#F3F3F3"/>
<path d="M353.101 373.779C346.609 373.779 340.788 372.8 335.635 370.843C330.586 368.782 326.31 365.896 322.806 362.187C319.303 358.374 316.624 353.84 314.769 348.585C312.914 343.33 311.987 337.456 311.987 330.965C311.987 323.442 313.172 316.332 315.542 309.634C317.912 302.833 320.952 296.599 324.661 290.932C328.474 285.161 332.699 280.009 337.336 275.475C342.076 270.941 346.764 267.129 351.401 264.037H383.396C376.698 268.674 370.67 273.157 365.312 277.485C360.057 281.709 355.42 285.986 351.401 290.314C347.485 294.538 344.24 298.918 341.663 303.452C339.19 307.986 337.387 312.88 336.254 318.136L337.645 318.599C338.572 316.538 339.706 314.529 341.045 312.571C342.385 310.613 344.033 308.913 345.991 307.47C347.949 305.925 350.216 304.688 352.792 303.761C355.471 302.834 358.563 302.37 362.066 302.37C366.6 302.37 370.825 303.194 374.741 304.843C378.656 306.389 382.005 308.655 384.787 311.644C387.673 314.529 389.94 318.033 391.588 322.154C393.237 326.276 394.061 330.913 394.061 336.065C394.061 341.527 393.082 346.576 391.125 351.213C389.167 355.85 386.385 359.868 382.778 363.269C379.274 366.566 374.998 369.142 369.949 370.997C364.9 372.852 359.284 373.779 353.101 373.779ZM352.947 355.695C358.511 355.695 362.736 354.252 365.621 351.367C368.506 348.379 369.949 344.206 369.949 338.847V336.683C369.949 331.325 368.455 327.255 365.467 324.473C362.581 321.588 358.408 320.145 352.947 320.145C347.691 320.145 343.57 321.588 340.581 324.473C337.593 327.255 336.099 331.325 336.099 336.683V338.847C336.099 344.206 337.49 348.379 340.272 351.367C343.158 354.252 347.382 355.695 352.947 355.695Z" fill="#F3F3F3"/>
</svg>
