<svg width="192" height="192" viewBox="0 0 192 192" fill="none" xmlns="http://www.w3.org/2000/svg">
<path d="M192 96C192 149.019 149.019 192 96 192C42.9807 192 0 149.019 0 96C0 42.9807 42.9807 0 96 0C149.019 0 192 42.9807 192 96Z" fill="#E17200"/>
<path d="M62.0341 96.6955C58.6337 96.6955 55.6776 96.1352 53.1659 95.0146C50.6542 93.894 48.6255 92.3677 47.0799 90.4356L52.1226 84.8712C53.5909 86.4942 55.1946 87.6921 56.9334 88.4649C58.7109 89.2377 60.5078 89.6242 62.3239 89.6242C64.4106 89.6242 65.9949 89.1605 67.0768 88.2331C68.1588 87.3057 68.6998 85.9725 68.6998 84.2337C68.6998 82.8039 68.2747 81.722 67.4246 80.9878C66.6131 80.2536 65.222 79.7319 63.2513 79.4228L59.0201 78.7272C55.3878 78.109 52.7602 76.7759 51.1372 74.7279C49.5143 72.6412 48.7028 70.1102 48.7028 67.1348C48.7028 63.232 49.978 60.218 52.5283 58.0927C55.0786 55.9288 58.653 54.8468 63.2513 54.8468C66.3813 54.8468 69.1055 55.3298 71.424 56.2958C73.7425 57.2619 75.6166 58.5757 77.0463 60.2373L72.1196 65.7437C71.0376 64.5458 69.7624 63.6184 68.294 62.9615C66.8257 62.266 65.1641 61.9182 63.3093 61.9182C59.4065 61.9182 57.4551 63.5218 57.4551 66.7291C57.4551 68.1202 57.8802 69.1635 58.7303 69.859C59.619 70.5546 61.0488 71.0762 63.0195 71.424L67.2507 72.1775C70.5352 72.7571 73.0663 73.9937 74.8438 75.8871C76.6213 77.7805 77.51 80.3309 77.51 83.5381C77.51 85.4315 77.1816 87.1897 76.5247 88.8127C75.8678 90.397 74.8824 91.7881 73.5686 92.986C72.2548 94.1452 70.6319 95.0533 68.6998 95.7102C66.8063 96.3671 64.5845 96.6955 62.0341 96.6955Z" fill="#0A1122"/>
<path d="M102.527 79.075H92.3257V96H83.5734V55.5423H92.3257V71.9457H102.527V55.5423H111.279V96H102.527V79.075Z" fill="#0A1122"/>
<path d="M140.006 96L137.456 86.2623H126.385L123.893 96H115.082L126.037 55.5423H138.325L149.28 96H140.006ZM132.181 63.9469H131.717L127.776 79.2489H136.123L132.181 63.9469Z" fill="#0A1122"/>
<path d="M77.4521 139.472H48.355V131.531L61.1067 120.924C63.3093 119.03 64.8936 117.388 65.8596 115.997C66.8257 114.606 67.3087 113.138 67.3087 111.592V111.012C67.3087 109.312 66.8063 108.037 65.8017 107.187C64.797 106.298 63.4445 105.854 61.7443 105.854C59.8122 105.854 58.3245 106.414 57.2812 107.534C56.2379 108.655 55.5037 109.988 55.0786 111.534L47.4856 108.636C47.9493 107.245 48.5869 105.931 49.3983 104.694C50.2098 103.419 51.2338 102.318 52.4703 101.39C53.7455 100.463 55.2139 99.7289 56.8755 99.1879C58.5371 98.6083 60.4498 98.3185 62.6137 98.3185C64.8163 98.3185 66.787 98.6276 68.5259 99.2459C70.2648 99.8642 71.7331 100.714 72.931 101.796C74.1289 102.878 75.037 104.173 75.6552 105.68C76.2735 107.148 76.5826 108.752 76.5826 110.491C76.5826 112.191 76.2928 113.756 75.7132 115.186C75.1722 116.577 74.3994 117.89 73.3947 119.127C72.4287 120.363 71.2694 121.561 69.917 122.721C68.6032 123.88 67.1928 125.039 65.6857 126.198L57.9768 132.168H77.4521V139.472Z" fill="#F3F3F3"/>
<path d="M110.468 106.607H91.7461L90.8187 119.417H91.3404C91.7654 118.489 92.2485 117.639 92.7894 116.866C93.3304 116.055 93.968 115.379 94.7022 114.838C95.4364 114.258 96.2865 113.814 97.2525 113.505C98.2186 113.195 99.3198 113.041 100.556 113.041C102.218 113.041 103.783 113.331 105.251 113.91C106.758 114.49 108.072 115.34 109.193 116.461C110.352 117.543 111.26 118.895 111.917 120.518C112.574 122.102 112.902 123.899 112.902 125.909C112.902 127.957 112.555 129.85 111.859 131.589C111.163 133.328 110.139 134.835 108.787 136.11C107.473 137.385 105.831 138.39 103.86 139.124C101.89 139.819 99.6483 140.167 97.1366 140.167C95.1659 140.167 93.4077 139.955 91.862 139.53C90.3164 139.105 88.9446 138.544 87.7467 137.849C86.5875 137.115 85.5635 136.284 84.6747 135.356C83.8246 134.39 83.0904 133.405 82.4722 132.4L88.79 127.416C89.2537 128.188 89.7368 128.923 90.2391 129.618C90.7801 130.314 91.379 130.932 92.0359 131.473C92.7315 131.975 93.485 132.381 94.2965 132.69C95.1466 132.961 96.1126 133.096 97.1946 133.096C99.3585 133.096 100.981 132.516 102.063 131.357C103.184 130.159 103.744 128.575 103.744 126.604V126.14C103.744 124.247 103.184 122.759 102.063 121.677C100.943 120.595 99.3971 120.054 97.4264 120.054C95.8035 120.054 94.451 120.383 93.3691 121.04C92.3257 121.658 91.5336 122.276 90.9926 122.894L83.8632 121.909L85.3703 99.014H110.468V106.607Z" fill="#F3F3F3"/>
<path d="M132.413 140.167C129.979 140.167 127.795 139.8 125.863 139.066C123.97 138.293 122.366 137.211 121.052 135.82C119.739 134.39 118.734 132.69 118.038 130.719C117.343 128.749 116.995 126.546 116.995 124.112C116.995 121.291 117.439 118.625 118.328 116.113C119.217 113.563 120.357 111.225 121.748 109.099C123.178 106.936 124.762 105.003 126.501 103.303C128.278 101.603 130.037 100.173 131.775 99.014H143.774C141.262 100.753 139.001 102.434 136.992 104.057C135.021 105.641 133.282 107.245 131.775 108.868C130.307 110.452 129.09 112.094 128.124 113.794C127.196 115.495 126.52 117.33 126.095 119.301L126.617 119.475C126.965 118.702 127.39 117.948 127.892 117.214C128.394 116.48 129.013 115.842 129.747 115.301C130.481 114.722 131.331 114.258 132.297 113.91C133.302 113.563 134.461 113.389 135.775 113.389C137.475 113.389 139.059 113.698 140.528 114.316C141.996 114.896 143.252 115.746 144.295 116.866C145.377 117.948 146.227 119.262 146.846 120.808C147.464 122.354 147.773 124.092 147.773 126.024C147.773 128.072 147.406 129.966 146.672 131.705C145.938 133.444 144.894 134.951 143.542 136.226C142.228 137.462 140.624 138.428 138.731 139.124C136.837 139.819 134.731 140.167 132.413 140.167ZM132.355 133.386C134.442 133.386 136.026 132.845 137.108 131.763C138.19 130.642 138.731 129.077 138.731 127.068V126.256C138.731 124.247 138.171 122.721 137.05 121.677C135.968 120.595 134.403 120.054 132.355 120.054C130.384 120.054 128.839 120.595 127.718 121.677C126.597 122.721 126.037 124.247 126.037 126.256V127.068C126.037 129.077 126.559 130.642 127.602 131.763C128.684 132.845 130.268 133.386 132.355 133.386Z" fill="#F3F3F3"/>
</svg>
